<mxfile host="app.diagrams.net" modified="2024-06-27T04:16:48.344Z" agent="Mozilla/5.0 (Windows NT 10.0; Win64; x64) AppleWebKit/537.36 (KHTML, like Gecko) Chrome/126.0.0.0 Safari/537.36" etag="cGNTD9Vv432GuL98bY-l" version="24.6.3" type="github">
  <diagram name="Page-1" id="5RAjtBZfRVpLdp13UfPU">
    <mxGraphModel dx="684" dy="357" grid="1" gridSize="10" guides="1" tooltips="1" connect="1" arrows="1" fold="1" page="1" pageScale="1" pageWidth="850" pageHeight="1100" math="1" shadow="0">
      <root>
        <mxCell id="0" />
        <mxCell id="1" parent="0" />
        <mxCell id="kh0iLK3lcVkVevoT4jQD-10" value="" style="ellipse;whiteSpace=wrap;html=1;fillColor=#ffe6cc;strokeColor=#d79b00;" vertex="1" parent="1">
          <mxGeometry x="365" y="238" width="90" height="220" as="geometry" />
        </mxCell>
        <mxCell id="kh0iLK3lcVkVevoT4jQD-5" value="" style="ellipse;whiteSpace=wrap;html=1;fillColor=#dae8fc;strokeColor=#6c8ebf;" vertex="1" parent="1">
          <mxGeometry x="205" y="238" width="90" height="220" as="geometry" />
        </mxCell>
        <mxCell id="nsaVbqY2D22ZLtYs1axp-36" value="Normal" style="text;html=1;align=center;verticalAlign=middle;resizable=0;points=[];autosize=1;strokeColor=none;fillColor=none;" parent="1" vertex="1">
          <mxGeometry x="145" y="333" width="60" height="30" as="geometry" />
        </mxCell>
        <mxCell id="nsaVbqY2D22ZLtYs1axp-37" value="Attacked" style="text;html=1;align=center;verticalAlign=middle;resizable=0;points=[];autosize=1;strokeColor=none;fillColor=none;" parent="1" vertex="1">
          <mxGeometry x="455" y="333" width="70" height="30" as="geometry" />
        </mxCell>
        <mxCell id="kh0iLK3lcVkVevoT4jQD-8" value="\(F(G(A))\)" style="rounded=0;whiteSpace=wrap;html=1;" vertex="1" parent="1">
          <mxGeometry x="220" y="320" width="60" height="20" as="geometry" />
        </mxCell>
        <mxCell id="kh0iLK3lcVkVevoT4jQD-12" value="" style="endArrow=classic;html=1;rounded=0;edgeStyle=orthogonalEdgeStyle;curved=1;entryX=1;entryY=0.5;entryDx=0;entryDy=0;exitX=1;exitY=0.5;exitDx=0;exitDy=0;strokeWidth=4;fillColor=#dae8fc;strokeColor=#6c8ebf;" edge="1" parent="1" source="kh0iLK3lcVkVevoT4jQD-3" target="kh0iLK3lcVkVevoT4jQD-7">
          <mxGeometry width="50" height="50" relative="1" as="geometry">
            <mxPoint x="500" y="399.48" as="sourcePoint" />
            <mxPoint x="550" y="349.48" as="targetPoint" />
            <Array as="points">
              <mxPoint x="460" y="380" />
              <mxPoint x="460" y="425" />
            </Array>
          </mxGeometry>
        </mxCell>
        <mxCell id="kh0iLK3lcVkVevoT4jQD-13" value="\(G\)" style="edgeLabel;html=1;align=center;verticalAlign=middle;resizable=0;points=[];labelBackgroundColor=none;" vertex="1" connectable="0" parent="kh0iLK3lcVkVevoT4jQD-12">
          <mxGeometry x="-0.0108" relative="1" as="geometry">
            <mxPoint x="10" y="3" as="offset" />
          </mxGeometry>
        </mxCell>
        <mxCell id="kh0iLK3lcVkVevoT4jQD-3" value="\(B\)" style="rounded=0;whiteSpace=wrap;html=1;" vertex="1" parent="1">
          <mxGeometry x="400" y="370" width="20" height="20" as="geometry" />
        </mxCell>
        <mxCell id="kh0iLK3lcVkVevoT4jQD-14" value="" style="endArrow=classic;html=1;rounded=0;edgeStyle=orthogonalEdgeStyle;curved=1;entryX=0.5;entryY=0;entryDx=0;entryDy=0;exitX=0.5;exitY=0;exitDx=0;exitDy=0;strokeWidth=4;fillColor=#dae8fc;strokeColor=#6c8ebf;" edge="1" parent="1" source="kh0iLK3lcVkVevoT4jQD-2" target="kh0iLK3lcVkVevoT4jQD-4">
          <mxGeometry width="50" height="50" relative="1" as="geometry">
            <mxPoint x="325" y="180" as="sourcePoint" />
            <mxPoint x="335" y="225" as="targetPoint" />
            <Array as="points">
              <mxPoint x="250" y="240" />
              <mxPoint x="410" y="240" />
            </Array>
          </mxGeometry>
        </mxCell>
        <mxCell id="kh0iLK3lcVkVevoT4jQD-15" value="\(G\)" style="edgeLabel;html=1;align=center;verticalAlign=middle;resizable=0;points=[];labelBackgroundColor=none;" vertex="1" connectable="0" parent="kh0iLK3lcVkVevoT4jQD-14">
          <mxGeometry x="-0.0108" relative="1" as="geometry">
            <mxPoint x="1" y="-10" as="offset" />
          </mxGeometry>
        </mxCell>
        <mxCell id="kh0iLK3lcVkVevoT4jQD-16" value="" style="endArrow=classic;html=1;rounded=0;edgeStyle=orthogonalEdgeStyle;curved=1;entryX=0.5;entryY=1;entryDx=0;entryDy=0;exitX=0.5;exitY=1;exitDx=0;exitDy=0;strokeWidth=4;fillColor=#ffe6cc;strokeColor=#d79b00;" edge="1" parent="1" source="kh0iLK3lcVkVevoT4jQD-7" target="kh0iLK3lcVkVevoT4jQD-9">
          <mxGeometry width="50" height="50" relative="1" as="geometry">
            <mxPoint x="295" y="435" as="sourcePoint" />
            <mxPoint x="305" y="480" as="targetPoint" />
            <Array as="points">
              <mxPoint x="410" y="460" />
              <mxPoint x="250" y="460" />
            </Array>
          </mxGeometry>
        </mxCell>
        <mxCell id="kh0iLK3lcVkVevoT4jQD-17" value="\(F\)" style="edgeLabel;html=1;align=center;verticalAlign=middle;resizable=0;points=[];labelBackgroundColor=none;" vertex="1" connectable="0" parent="kh0iLK3lcVkVevoT4jQD-16">
          <mxGeometry x="-0.0108" relative="1" as="geometry">
            <mxPoint x="16" y="-10" as="offset" />
          </mxGeometry>
        </mxCell>
        <mxCell id="kh0iLK3lcVkVevoT4jQD-18" value="" style="endArrow=classic;html=1;rounded=0;edgeStyle=orthogonalEdgeStyle;curved=1;entryX=1;entryY=0.5;entryDx=0;entryDy=0;exitX=0.5;exitY=1;exitDx=0;exitDy=0;strokeWidth=4;fillColor=#ffe6cc;strokeColor=#d79b00;" edge="1" parent="1" source="kh0iLK3lcVkVevoT4jQD-4" target="kh0iLK3lcVkVevoT4jQD-8">
          <mxGeometry width="50" height="50" relative="1" as="geometry">
            <mxPoint x="440" y="325" as="sourcePoint" />
            <mxPoint x="280" y="290" as="targetPoint" />
            <Array as="points">
              <mxPoint x="410" y="330" />
            </Array>
          </mxGeometry>
        </mxCell>
        <mxCell id="kh0iLK3lcVkVevoT4jQD-19" value="\(F\)" style="edgeLabel;html=1;align=center;verticalAlign=middle;resizable=0;points=[];labelBackgroundColor=none;" vertex="1" connectable="0" parent="kh0iLK3lcVkVevoT4jQD-18">
          <mxGeometry x="-0.0108" relative="1" as="geometry">
            <mxPoint x="-33" y="-10" as="offset" />
          </mxGeometry>
        </mxCell>
        <mxCell id="kh0iLK3lcVkVevoT4jQD-2" value="\(A\)" style="rounded=0;whiteSpace=wrap;html=1;" vertex="1" parent="1">
          <mxGeometry x="240" y="275" width="20" height="20" as="geometry" />
        </mxCell>
        <mxCell id="kh0iLK3lcVkVevoT4jQD-9" value="\(F(G(B))\)" style="rounded=0;whiteSpace=wrap;html=1;" vertex="1" parent="1">
          <mxGeometry x="220" y="380" width="60" height="20" as="geometry" />
        </mxCell>
        <mxCell id="kh0iLK3lcVkVevoT4jQD-4" value="\(G(A)\)" style="rounded=0;whiteSpace=wrap;html=1;" vertex="1" parent="1">
          <mxGeometry x="390" y="275" width="40" height="20" as="geometry" />
        </mxCell>
        <mxCell id="kh0iLK3lcVkVevoT4jQD-7" value="\(G(B)\)" style="rounded=0;whiteSpace=wrap;html=1;" vertex="1" parent="1">
          <mxGeometry x="390" y="415" width="40" height="20" as="geometry" />
        </mxCell>
        <mxCell id="kh0iLK3lcVkVevoT4jQD-21" value="" style="endArrow=none;dashed=1;html=1;rounded=0;exitX=0;exitY=0.5;exitDx=0;exitDy=0;entryX=1;entryY=0.5;entryDx=0;entryDy=0;" edge="1" parent="1" source="kh0iLK3lcVkVevoT4jQD-5" target="kh0iLK3lcVkVevoT4jQD-10">
          <mxGeometry width="50" height="50" relative="1" as="geometry">
            <mxPoint x="330" y="330" as="sourcePoint" />
            <mxPoint x="380" y="280" as="targetPoint" />
          </mxGeometry>
        </mxCell>
      </root>
    </mxGraphModel>
  </diagram>
</mxfile>
